<?xml version="1.0" encoding="UTF-8"?>
<svg id="Layer_2" data-name="Layer 2" xmlns="http://www.w3.org/2000/svg" viewBox="0 0 193.29 146.78">
  <defs>
    <style>
      .cls-1 {
        fill: #120b01;
      }

      .cls-1, .cls-2, .cls-3, .cls-4, .cls-5, .cls-6, .cls-7, .cls-8 {
        stroke-width: 0px;
      }

      .cls-2 {
        fill: #e24e27;
      }

      .cls-3 {
        fill: #120a07;
      }

      .cls-4 {
        fill: #e9f0e6;
      }

      .cls-5 {
        fill: #f3b1a9;
      }

      .cls-6 {
        fill: #6d2821;
      }

      .cls-7 {
        fill: #eed0a2;
      }

      .cls-8 {
        fill: #e79034;
      }
    </style>
  </defs>
  <g id="Layer_1-2" data-name="Layer 1">
    <g id="Cat">
      <g id="front_right_leg" data-name="front right leg">
        <rect class="cls-6" x="23.53" y="140.9" width="5.88" height="5.88"/>
        <rect class="cls-6" x="23.53" y="135.01" width="5.88" height="5.89"/>
        <rect class="cls-6" x="41.17" y="140.9" width="5.89" height="5.88"/>
        <rect class="cls-8" x="41.17" y="135.01" width="5.89" height="5.89"/>
        <rect class="cls-2" x="47.06" y="111.49" width="5.88" height="5.88"/>
        <rect class="cls-2" x="41.17" y="111.49" width="5.89" height="5.88"/>
        <rect class="cls-8" x="41.17" y="117.37" width="5.89" height="5.88"/>
        <rect class="cls-2" x="47.06" y="129.13" width="5.88" height="5.88"/>
        <rect class="cls-8" x="47.06" y="123.25" width="5.88" height="5.88"/>
        <rect class="cls-8" x="47.06" y="105.6" width="5.88" height="5.89"/>
        <rect class="cls-8" x="47.06" y="117.37" width="5.88" height="5.88"/>
        <rect class="cls-2" x="41.17" y="129.13" width="5.89" height="5.88"/>
        <rect class="cls-2" x="41.17" y="105.6" width="5.89" height="5.89"/>
        <rect class="cls-8" x="41.17" y="123.25" width="5.89" height="5.88"/>
        <rect class="cls-6" x="35.29" y="140.9" width="5.88" height="5.88"/>
        <rect class="cls-8" x="29.41" y="135.01" width="5.88" height="5.89"/>
        <rect class="cls-2" x="35.29" y="105.6" width="5.88" height="5.89"/>
        <rect class="cls-8" x="35.29" y="123.25" width="5.88" height="5.88"/>
        <rect class="cls-2" x="35.29" y="111.49" width="5.88" height="5.88"/>
        <rect class="cls-6" x="29.41" y="140.9" width="5.88" height="5.88"/>
        <rect class="cls-8" x="35.29" y="135.01" width="5.88" height="5.89"/>
        <rect class="cls-6" x="29.41" y="123.25" width="5.88" height="5.88"/>
        <rect class="cls-2" x="35.29" y="129.13" width="5.88" height="5.88"/>
        <rect class="cls-6" x="29.41" y="105.6" width="5.88" height="5.89"/>
        <rect class="cls-6" x="29.41" y="129.13" width="5.88" height="5.88"/>
        <rect class="cls-8" x="35.29" y="117.37" width="5.88" height="5.88"/>
        <rect class="cls-6" x="29.41" y="111.49" width="5.88" height="5.88"/>
        <rect class="cls-6" x="29.41" y="117.37" width="5.88" height="5.88"/>
      </g>
      <g id="front_left_leg" data-name="front left leg">
        <rect class="cls-2" x="58.81" y="129.13" width="5.88" height="5.88"/>
        <rect class="cls-8" x="58.81" y="135.01" width="5.88" height="5.89"/>
        <rect class="cls-8" x="52.93" y="135.01" width="5.88" height="5.89"/>
        <rect class="cls-6" x="52.93" y="117.37" width="5.88" height="5.88"/>
        <rect class="cls-8" x="58.81" y="105.6" width="5.88" height="5.89"/>
        <rect class="cls-6" x="52.93" y="111.49" width="5.88" height="5.88"/>
        <rect class="cls-6" x="52.93" y="105.6" width="5.88" height="5.89"/>
        <rect class="cls-6" x="58.81" y="140.9" width="5.88" height="5.88"/>
        <rect class="cls-8" x="58.81" y="123.25" width="5.88" height="5.88"/>
        <rect class="cls-6" x="47.05" y="140.9" width="5.88" height="5.88"/>
        <rect class="cls-6" x="52.93" y="123.25" width="5.88" height="5.88"/>
        <rect class="cls-6" x="52.93" y="140.9" width="5.88" height="5.88"/>
        <rect class="cls-8" x="58.81" y="117.37" width="5.88" height="5.88"/>
        <rect class="cls-6" x="52.93" y="129.13" width="5.88" height="5.88"/>
        <rect class="cls-2" x="58.81" y="111.49" width="5.88" height="5.88"/>
        <rect class="cls-6" x="47.05" y="135.01" width="5.88" height="5.89"/>
        <rect class="cls-2" x="70.58" y="111.49" width="5.88" height="5.88"/>
        <rect class="cls-8" x="70.58" y="123.25" width="5.88" height="5.88"/>
        <rect class="cls-8" x="70.58" y="117.37" width="5.88" height="5.88"/>
        <rect class="cls-8" x="70.58" y="105.6" width="5.88" height="5.89"/>
        <rect class="cls-2" x="70.58" y="129.13" width="5.88" height="5.88"/>
        <rect class="cls-6" x="70.58" y="135.01" width="5.88" height="5.89"/>
        <rect class="cls-6" x="64.69" y="140.9" width="5.89" height="5.88"/>
        <rect class="cls-8" x="64.69" y="123.25" width="5.89" height="5.88"/>
        <rect class="cls-2" x="64.69" y="129.13" width="5.89" height="5.88"/>
        <rect class="cls-8" x="64.69" y="135.01" width="5.89" height="5.89"/>
        <rect class="cls-8" x="64.69" y="117.37" width="5.89" height="5.88"/>
        <rect class="cls-2" x="64.69" y="111.49" width="5.89" height="5.88"/>
        <rect class="cls-8" x="64.69" y="105.6" width="5.89" height="5.89"/>
        <rect class="cls-6" x="76.46" y="129.13" width="5.88" height="5.88"/>
        <rect class="cls-6" x="76.46" y="111.49" width="5.88" height="5.88"/>
        <rect class="cls-6" x="76.46" y="117.37" width="5.88" height="5.88"/>
        <rect class="cls-2" x="76.46" y="105.6" width="5.88" height="5.89"/>
        <rect class="cls-6" x="76.46" y="123.25" width="5.88" height="5.88"/>
      </g>
      <g id="Tail">
        <rect class="cls-6" x="169.77" y="87.96" width="5.88" height="5.88"/>
        <rect class="cls-6" x="175.65" y="111.49" width="5.88" height="5.88"/>
        <rect class="cls-6" x="169.77" y="135.01" width="5.88" height="5.89"/>
        <rect class="cls-6" x="175.65" y="117.37" width="5.88" height="5.88"/>
        <rect class="cls-6" x="169.77" y="76.19" width="5.88" height="5.88"/>
        <rect class="cls-6" x="181.53" y="117.37" width="5.88" height="5.88"/>
        <rect class="cls-6" x="181.53" y="123.25" width="5.88" height="5.88"/>
        <rect class="cls-6" x="169.77" y="64.43" width="5.88" height="5.88"/>
        <rect class="cls-6" x="169.77" y="129.13" width="5.88" height="5.88"/>
        <rect class="cls-6" x="169.77" y="105.6" width="5.88" height="5.89"/>
        <rect class="cls-6" x="181.53" y="135.01" width="5.88" height="5.89"/>
        <rect class="cls-6" x="169.77" y="93.84" width="5.88" height="5.88"/>
        <rect class="cls-6" x="181.53" y="129.13" width="5.88" height="5.88"/>
        <rect class="cls-8" x="169.77" y="123.25" width="5.88" height="5.88"/>
        <rect class="cls-8" x="175.65" y="129.13" width="5.88" height="5.88"/>
        <rect class="cls-8" x="175.65" y="123.25" width="5.88" height="5.88"/>
        <rect class="cls-6" x="169.77" y="70.31" width="5.88" height="5.88"/>
        <rect class="cls-8" x="169.77" y="117.37" width="5.88" height="5.88"/>
        <rect class="cls-2" x="169.77" y="111.49" width="5.88" height="5.88"/>
        <rect class="cls-6" x="169.77" y="99.72" width="5.88" height="5.88"/>
        <rect class="cls-6" x="175.65" y="135.01" width="5.88" height="5.89"/>
        <rect class="cls-6" x="169.77" y="82.07" width="5.88" height="5.89"/>
        <rect class="cls-8" x="163.88" y="99.72" width="5.89" height="5.88"/>
        <rect class="cls-2" x="163.88" y="76.19" width="5.89" height="5.88"/>
        <rect class="cls-6" x="163.88" y="64.43" width="5.89" height="5.88"/>
        <rect class="cls-6" x="158" y="93.84" width="5.88" height="5.88"/>
        <rect class="cls-6" x="163.88" y="111.49" width="5.89" height="5.88"/>
        <rect class="cls-6" x="158" y="111.49" width="5.88" height="5.88"/>
        <rect class="cls-6" x="163.88" y="123.25" width="5.89" height="5.88"/>
        <rect class="cls-8" x="163.88" y="87.96" width="5.89" height="5.88"/>
        <rect class="cls-2" x="163.88" y="105.6" width="5.89" height="5.89"/>
        <rect class="cls-6" x="158" y="82.07" width="5.88" height="5.89"/>
        <rect class="cls-2" x="163.88" y="82.07" width="5.89" height="5.89"/>
        <rect class="cls-6" x="158" y="58.54" width="5.88" height="5.89"/>
        <rect class="cls-2" x="158" y="70.31" width="5.88" height="5.88"/>
        <rect class="cls-2" x="158" y="64.43" width="5.88" height="5.88"/>
        <rect class="cls-6" x="158" y="105.6" width="5.88" height="5.89"/>
        <rect class="cls-2" x="163.88" y="70.31" width="5.89" height="5.88"/>
        <rect class="cls-6" x="163.88" y="117.37" width="5.89" height="5.88"/>
        <rect class="cls-6" x="163.88" y="129.13" width="5.89" height="5.88"/>
        <rect class="cls-6" x="158" y="76.19" width="5.88" height="5.88"/>
        <rect class="cls-8" x="163.88" y="93.84" width="5.89" height="5.88"/>
        <rect class="cls-6" x="158" y="99.72" width="5.88" height="5.88"/>
        <rect class="cls-6" x="158" y="87.96" width="5.88" height="5.88"/>
        <rect class="cls-6" x="187.41" y="129.13" width="5.88" height="5.88"/>
        <rect class="cls-6" x="187.41" y="123.25" width="5.88" height="5.88"/>
      </g>
      <g id="back_left_leg" data-name="back left leg">
        <rect class="cls-6" x="152.94" y="123.25" width="5.88" height="5.88"/>
        <rect class="cls-8" x="152.94" y="111.49" width="5.88" height="5.88"/>
        <rect class="cls-6" x="152.94" y="117.37" width="5.88" height="5.88"/>
        <rect class="cls-8" x="141.17" y="117.37" width="5.89" height="5.88"/>
        <rect class="cls-6" x="129.41" y="117.37" width="5.88" height="5.88"/>
        <rect class="cls-8" x="147.06" y="117.37" width="5.88" height="5.88"/>
        <rect class="cls-6" x="129.41" y="123.25" width="5.88" height="5.88"/>
        <rect class="cls-8" x="135.29" y="111.49" width="5.88" height="5.88"/>
        <rect class="cls-8" x="147.06" y="111.49" width="5.88" height="5.88"/>
        <rect class="cls-6" x="129.41" y="140.9" width="5.88" height="5.88"/>
        <rect class="cls-6" x="129.41" y="129.13" width="5.88" height="5.88"/>
        <rect class="cls-8" x="129.41" y="135.01" width="5.88" height="5.89"/>
        <rect class="cls-2" x="135.29" y="129.13" width="5.88" height="5.88"/>
        <rect class="cls-6" x="147.06" y="129.13" width="5.88" height="5.88"/>
        <rect class="cls-8" x="135.29" y="135.01" width="5.88" height="5.89"/>
        <rect class="cls-8" x="135.29" y="117.37" width="5.88" height="5.88"/>
        <rect class="cls-6" x="141.17" y="129.13" width="5.89" height="5.88"/>
        <rect class="cls-6" x="147.06" y="123.25" width="5.88" height="5.88"/>
        <rect class="cls-8" x="141.17" y="111.49" width="5.89" height="5.88"/>
        <rect class="cls-8" x="135.29" y="123.25" width="5.88" height="5.88"/>
        <rect class="cls-8" x="141.17" y="123.25" width="5.89" height="5.88"/>
        <rect class="cls-6" x="141.17" y="135.01" width="5.89" height="5.89"/>
        <rect class="cls-6" x="135.29" y="140.9" width="5.88" height="5.88"/>
        <rect class="cls-6" x="123.53" y="111.49" width="5.88" height="5.88"/>
        <rect class="cls-6" x="123.53" y="140.9" width="5.88" height="5.88"/>
        <rect class="cls-8" x="129.41" y="111.49" width="5.88" height="5.88"/>
        <rect class="cls-6" x="123.53" y="135.01" width="5.88" height="5.89"/>
      </g>
      <g id="back_right_leg" data-name="back right leg">
        <rect class="cls-6" x="123.53" y="123.25" width="5.88" height="5.88"/>
        <rect class="cls-6" x="123.53" y="117.37" width="5.88" height="5.88"/>
        <rect class="cls-6" x="123.53" y="129.13" width="5.88" height="5.88"/>
        <rect class="cls-2" x="105.88" y="111.49" width="5.88" height="5.88"/>
        <rect class="cls-6" x="100" y="135.01" width="5.88" height="5.89"/>
        <rect class="cls-2" x="105.88" y="105.6" width="5.88" height="5.89"/>
        <rect class="cls-6" x="100" y="111.49" width="5.88" height="5.88"/>
        <rect class="cls-6" x="105.88" y="117.37" width="5.88" height="5.88"/>
        <rect class="cls-6" x="100" y="140.9" width="5.88" height="5.88"/>
        <rect class="cls-6" x="105.88" y="123.25" width="5.88" height="5.88"/>
        <rect class="cls-2" x="100" y="105.6" width="5.88" height="5.89"/>
        <rect class="cls-2" x="117.64" y="123.25" width="5.89" height="5.88"/>
        <rect class="cls-2" x="117.64" y="129.13" width="5.89" height="5.88"/>
        <rect class="cls-6" x="117.64" y="135.01" width="5.89" height="5.89"/>
        <rect class="cls-6" x="111.76" y="140.9" width="5.88" height="5.88"/>
        <rect class="cls-6" x="105.88" y="129.13" width="5.88" height="5.88"/>
        <rect class="cls-6" x="105.88" y="140.9" width="5.88" height="5.88"/>
        <rect class="cls-2" x="111.76" y="111.49" width="5.88" height="5.88"/>
        <rect class="cls-2" x="111.76" y="123.25" width="5.88" height="5.88"/>
        <rect class="cls-2" x="111.76" y="117.37" width="5.88" height="5.88"/>
        <rect class="cls-8" x="111.76" y="135.01" width="5.88" height="5.89"/>
        <rect class="cls-2" x="111.76" y="129.13" width="5.88" height="5.88"/>
        <rect class="cls-6" x="117.64" y="140.9" width="5.89" height="5.88"/>
        <rect class="cls-8" x="105.88" y="135.01" width="5.88" height="5.89"/>
        <rect class="cls-2" x="117.64" y="117.37" width="5.89" height="5.88"/>
      </g>
      <g id="body">
        <rect class="cls-8" x="23.53" y="52.66" width="85.29" height="33.06"/>
        <rect class="cls-8" x="117.63" y="64.43" width="5.89" height="5.88"/>
        <rect class="cls-6" x="117.63" y="111.49" width="5.89" height="5.88"/>
        <rect class="cls-8" x="117.63" y="82.07" width="5.89" height="5.89"/>
        <rect class="cls-2" x="117.63" y="76.19" width="5.89" height="5.88"/>
        <rect class="cls-8" x="117.63" y="70.31" width="5.89" height="5.88"/>
        <rect class="cls-8" x="117.63" y="87.96" width="5.89" height="5.88"/>
        <rect class="cls-8" x="117.63" y="58.54" width="5.89" height="5.89"/>
        <rect class="cls-8" x="117.63" y="99.72" width="5.89" height="5.88"/>
        <rect class="cls-6" x="117.63" y="105.6" width="5.89" height="5.89"/>
        <rect class="cls-6" x="117.63" y="52.66" width="5.89" height="5.88"/>
        <rect class="cls-8" x="117.63" y="93.84" width="5.89" height="5.88"/>
        <rect class="cls-8" x="123.52" y="99.72" width="5.88" height="5.88"/>
        <rect class="cls-8" x="123.52" y="93.84" width="5.88" height="5.88"/>
        <rect class="cls-6" x="123.52" y="52.66" width="5.88" height="5.88"/>
        <rect class="cls-2" x="123.52" y="76.19" width="5.88" height="5.88"/>
        <rect class="cls-8" x="123.52" y="87.96" width="5.88" height="5.88"/>
        <rect class="cls-8" x="123.52" y="58.54" width="5.88" height="5.89"/>
        <rect class="cls-8" x="123.52" y="82.07" width="5.88" height="5.89"/>
        <rect class="cls-2" x="123.52" y="70.31" width="5.88" height="5.88"/>
        <rect class="cls-8" x="123.52" y="64.43" width="5.88" height="5.88"/>
        <rect class="cls-8" x="82.34" y="87.96" width="5.88" height="5.88"/>
        <rect class="cls-8" x="82.34" y="76.19" width="5.88" height="5.88"/>
        <rect class="cls-8" x="82.34" y="99.72" width="5.88" height="5.88"/>
        <rect class="cls-6" x="82.34" y="64.43" width="5.88" height="5.88"/>
        <rect class="cls-8" x="82.34" y="82.07" width="5.88" height="5.89"/>
        <rect class="cls-2" x="82.34" y="70.31" width="5.88" height="5.88"/>
        <rect class="cls-6" x="82.34" y="105.6" width="5.88" height="5.89"/>
        <rect class="cls-8" x="82.34" y="93.84" width="5.88" height="5.88"/>
        <rect class="cls-8" x="64.69" y="82.07" width="5.89" height="5.89"/>
        <rect class="cls-2" x="76.46" y="76.19" width="5.88" height="5.88"/>
        <rect class="cls-8" x="64.69" y="76.19" width="5.89" height="5.88"/>
        <rect class="cls-8" x="64.69" y="93.84" width="5.89" height="5.88"/>
        <rect class="cls-8" x="76.46" y="99.72" width="5.88" height="5.88"/>
        <rect class="cls-8" x="76.46" y="87.96" width="5.88" height="5.88"/>
        <rect class="cls-8" x="76.46" y="93.84" width="5.88" height="5.88"/>
        <rect class="cls-8" x="64.69" y="99.72" width="5.89" height="5.88"/>
        <rect class="cls-8" x="70.58" y="82.07" width="5.88" height="5.89"/>
        <rect class="cls-8" x="70.58" y="99.72" width="5.88" height="5.88"/>
        <rect class="cls-8" x="76.46" y="82.07" width="5.88" height="5.89"/>
        <rect class="cls-8" x="70.58" y="76.19" width="5.88" height="5.88"/>
        <rect class="cls-8" x="70.58" y="93.84" width="5.88" height="5.88"/>
        <rect class="cls-8" x="70.58" y="87.96" width="5.88" height="5.88"/>
        <rect class="cls-8" x="64.69" y="87.96" width="5.89" height="5.88"/>
        <rect class="cls-2" x="105.87" y="64.43" width="5.88" height="5.88"/>
        <rect class="cls-2" x="105.87" y="58.54" width="5.88" height="5.89"/>
        <rect class="cls-6" x="105.87" y="52.66" width="5.88" height="5.88"/>
        <rect class="cls-8" x="99.99" y="82.07" width="5.88" height="5.89"/>
        <rect class="cls-8" x="99.99" y="70.31" width="5.88" height="5.88"/>
        <rect class="cls-8" x="99.99" y="64.43" width="5.88" height="5.88"/>
        <rect class="cls-8" x="99.99" y="99.72" width="5.88" height="5.88"/>
        <rect class="cls-8" x="99.99" y="58.54" width="5.88" height="5.89"/>
        <rect class="cls-8" x="99.99" y="93.84" width="5.88" height="5.88"/>
        <rect class="cls-8" x="99.99" y="87.96" width="5.88" height="5.88"/>
        <rect class="cls-6" x="99.99" y="52.66" width="5.88" height="5.88"/>
        <rect class="cls-2" x="99.99" y="76.19" width="5.88" height="5.88"/>
        <rect class="cls-8" x="105.87" y="82.07" width="5.88" height="5.89"/>
        <rect class="cls-2" x="105.87" y="70.31" width="5.88" height="5.88"/>
        <rect class="cls-8" x="105.87" y="76.19" width="5.88" height="5.88"/>
        <rect class="cls-8" x="105.87" y="87.96" width="5.88" height="5.88"/>
        <rect class="cls-8" x="105.87" y="99.72" width="5.88" height="5.88"/>
        <rect class="cls-8" x="105.87" y="93.84" width="5.88" height="5.88"/>
        <rect class="cls-6" x="111.75" y="87.96" width="5.88" height="5.88"/>
        <rect class="cls-2" x="111.75" y="58.54" width="5.88" height="5.89"/>
        <rect class="cls-6" x="111.75" y="99.72" width="5.88" height="5.88"/>
        <rect class="cls-8" x="111.75" y="76.19" width="5.88" height="5.88"/>
        <rect class="cls-6" x="111.75" y="52.66" width="5.88" height="5.88"/>
        <rect class="cls-8" x="111.75" y="64.43" width="5.88" height="5.88"/>
        <rect class="cls-6" x="111.75" y="93.84" width="5.88" height="5.88"/>
        <rect class="cls-8" x="111.75" y="70.31" width="5.88" height="5.88"/>
        <rect class="cls-6" x="111.75" y="105.6" width="5.88" height="5.89"/>
        <rect class="cls-8" x="111.75" y="82.07" width="5.88" height="5.89"/>
        <rect class="cls-8" x="94.1" y="76.19" width="5.89" height="5.88"/>
        <rect class="cls-8" x="94.1" y="70.31" width="5.89" height="5.88"/>
        <rect class="cls-6" x="94.1" y="52.66" width="5.89" height="5.88"/>
        <rect class="cls-8" x="94.1" y="87.96" width="5.89" height="5.88"/>
        <rect class="cls-8" x="94.1" y="93.84" width="5.89" height="5.88"/>
        <rect class="cls-6" x="94.1" y="58.54" width="5.89" height="5.89"/>
        <rect class="cls-8" x="94.1" y="99.72" width="5.89" height="5.88"/>
        <rect class="cls-8" x="94.1" y="64.43" width="5.89" height="5.88"/>
        <rect class="cls-6" x="94.1" y="105.6" width="5.89" height="5.89"/>
        <rect class="cls-8" x="94.1" y="82.07" width="5.89" height="5.89"/>
        <rect class="cls-6" x="88.22" y="105.6" width="5.88" height="5.89"/>
        <rect class="cls-8" x="88.22" y="82.07" width="5.88" height="5.89"/>
        <rect class="cls-6" x="88.22" y="58.54" width="5.88" height="5.89"/>
        <rect class="cls-8" x="88.22" y="93.84" width="5.88" height="5.88"/>
        <rect class="cls-8" x="88.22" y="76.19" width="5.88" height="5.88"/>
        <rect class="cls-8" x="88.22" y="99.72" width="5.88" height="5.88"/>
        <rect class="cls-8" x="88.22" y="64.43" width="5.88" height="5.88"/>
        <rect class="cls-8" x="88.22" y="70.31" width="5.88" height="5.88"/>
        <rect class="cls-8" x="88.22" y="87.96" width="5.88" height="5.88"/>
        <rect class="cls-8" x="135.28" y="99.72" width="5.88" height="5.88"/>
        <rect class="cls-8" x="129.4" y="93.84" width="5.88" height="5.88"/>
        <rect class="cls-8" x="129.4" y="111.49" width="5.88" height="5.88"/>
        <rect class="cls-8" x="135.28" y="111.49" width="5.88" height="5.88"/>
        <rect class="cls-2" x="129.4" y="58.54" width="5.88" height="5.89"/>
        <rect class="cls-8" x="141.16" y="64.43" width="5.89" height="5.88"/>
        <rect class="cls-6" x="135.28" y="52.66" width="5.88" height="5.88"/>
        <rect class="cls-2" x="129.4" y="64.43" width="5.88" height="5.88"/>
        <rect class="cls-8" x="129.4" y="76.19" width="5.88" height="5.88"/>
        <rect class="cls-8" x="129.4" y="105.6" width="5.88" height="5.89"/>
        <rect class="cls-8" x="135.28" y="93.84" width="5.88" height="5.88"/>
        <rect class="cls-8" x="129.4" y="87.96" width="5.88" height="5.88"/>
        <rect class="cls-8" x="135.28" y="64.43" width="5.88" height="5.88"/>
        <rect class="cls-8" x="135.28" y="87.96" width="5.88" height="5.88"/>
        <rect class="cls-8" x="135.28" y="82.07" width="5.88" height="5.89"/>
        <rect class="cls-8" x="129.4" y="82.07" width="5.88" height="5.89"/>
        <rect class="cls-6" x="129.4" y="52.66" width="5.88" height="5.88"/>
        <rect class="cls-8" x="141.16" y="76.19" width="5.89" height="5.88"/>
        <rect class="cls-8" x="141.16" y="70.31" width="5.89" height="5.88"/>
        <rect class="cls-8" x="129.4" y="99.72" width="5.88" height="5.88"/>
        <rect class="cls-2" x="135.28" y="58.54" width="5.88" height="5.89"/>
        <rect class="cls-2" x="129.4" y="70.31" width="5.88" height="5.88"/>
        <rect class="cls-8" x="135.28" y="70.31" width="5.88" height="5.88"/>
        <rect class="cls-6" x="141.16" y="58.54" width="5.89" height="5.89"/>
        <rect class="cls-8" x="123.52" y="105.6" width="5.88" height="5.89"/>
        <rect class="cls-8" x="135.28" y="105.6" width="5.88" height="5.89"/>
        <rect class="cls-8" x="135.28" y="76.19" width="5.88" height="5.88"/>
        <rect class="cls-6" x="29.4" y="99.72" width="5.88" height="5.88"/>
        <rect class="cls-8" x="35.28" y="76.19" width="5.88" height="5.88"/>
        <rect class="cls-2" x="29.4" y="87.96" width="5.88" height="5.88"/>
        <rect class="cls-8" x="35.28" y="82.07" width="5.88" height="5.89"/>
        <rect class="cls-8" x="41.16" y="82.07" width="5.89" height="5.89"/>
        <rect class="cls-8" x="35.28" y="87.96" width="5.88" height="5.88"/>
        <rect class="cls-8" x="41.16" y="76.19" width="5.89" height="5.88"/>
        <rect class="cls-8" x="41.16" y="87.96" width="5.89" height="5.88"/>
        <rect class="cls-2" x="29.4" y="93.84" width="5.88" height="5.88"/>
        <rect class="cls-8" x="29.4" y="82.07" width="5.88" height="5.89"/>
        <rect class="cls-8" x="35.28" y="99.72" width="5.88" height="5.88"/>
        <rect class="cls-8" x="35.28" y="93.84" width="5.88" height="5.88"/>
        <rect class="cls-2" x="29.4" y="76.19" width="5.88" height="5.88"/>
        <rect class="cls-6" x="23.52" y="99.72" width="5.88" height="5.88"/>
        <rect class="cls-6" x="23.52" y="87.96" width="5.88" height="5.88"/>
        <rect class="cls-6" x="23.52" y="93.84" width="5.88" height="5.88"/>
        <rect class="cls-6" x="23.52" y="82.07" width="5.88" height="5.89"/>
        <rect class="cls-6" x="23.52" y="76.19" width="5.88" height="5.88"/>
        <rect class="cls-8" x="58.81" y="93.84" width="5.88" height="5.88"/>
        <rect class="cls-8" x="58.81" y="99.72" width="5.88" height="5.88"/>
        <rect class="cls-8" x="58.81" y="82.07" width="5.88" height="5.89"/>
        <rect class="cls-8" x="58.81" y="87.96" width="5.88" height="5.88"/>
        <rect class="cls-8" x="58.81" y="76.19" width="5.88" height="5.88"/>
        <rect class="cls-8" x="47.05" y="99.72" width="5.88" height="5.88"/>
        <rect class="cls-8" x="52.93" y="99.72" width="5.88" height="5.88"/>
        <rect class="cls-8" x="47.05" y="87.96" width="5.88" height="5.88"/>
        <rect class="cls-8" x="47.05" y="82.07" width="5.88" height="5.89"/>
        <rect class="cls-8" x="52.93" y="93.84" width="5.88" height="5.88"/>
        <rect class="cls-8" x="47.05" y="93.84" width="5.88" height="5.88"/>
        <rect class="cls-8" x="41.16" y="93.84" width="5.89" height="5.88"/>
        <rect class="cls-8" x="41.16" y="99.72" width="5.89" height="5.88"/>
        <rect class="cls-8" x="47.05" y="76.19" width="5.88" height="5.88"/>
        <rect class="cls-8" x="52.93" y="82.07" width="5.88" height="5.89"/>
        <rect class="cls-8" x="52.93" y="76.19" width="5.88" height="5.88"/>
        <rect class="cls-8" x="52.93" y="87.96" width="5.88" height="5.88"/>
        <rect class="cls-8" x="152.93" y="111.49" width="5.88" height="5.88"/>
        <rect class="cls-8" x="152.93" y="105.6" width="5.88" height="5.89"/>
        <rect class="cls-8" x="152.93" y="99.72" width="5.88" height="5.88"/>
        <rect class="cls-8" x="152.93" y="93.84" width="5.88" height="5.88"/>
        <rect class="cls-8" x="152.93" y="87.96" width="5.88" height="5.88"/>
        <rect class="cls-8" x="152.93" y="82.07" width="5.88" height="5.89"/>
        <rect class="cls-8" x="152.93" y="76.19" width="5.88" height="5.88"/>
        <rect class="cls-6" x="152.93" y="70.31" width="5.88" height="5.88"/>
        <rect class="cls-6" x="152.93" y="64.43" width="5.88" height="5.88"/>
        <rect class="cls-6" x="152.93" y="58.54" width="5.88" height="5.89"/>
        <rect class="cls-8" x="147.06" y="111.49" width="5.88" height="5.88"/>
        <rect class="cls-8" x="147.06" y="105.6" width="5.88" height="5.89"/>
        <rect class="cls-8" x="147.06" y="99.72" width="5.88" height="5.88"/>
        <rect class="cls-8" x="147.06" y="93.84" width="5.88" height="5.88"/>
        <rect class="cls-8" x="147.06" y="87.96" width="5.88" height="5.88"/>
        <rect class="cls-8" x="147.06" y="82.07" width="5.88" height="5.89"/>
        <rect class="cls-8" x="147.06" y="76.19" width="5.88" height="5.88"/>
        <rect class="cls-8" x="147.06" y="70.31" width="5.88" height="5.88"/>
        <rect class="cls-6" x="147.06" y="64.43" width="5.88" height="5.88"/>
        <rect class="cls-6" x="147.06" y="58.54" width="5.88" height="5.89"/>
        <rect class="cls-8" x="141.16" y="111.49" width="5.89" height="5.88"/>
        <rect class="cls-8" x="141.16" y="105.6" width="5.89" height="5.89"/>
        <rect class="cls-8" x="141.16" y="99.72" width="5.89" height="5.88"/>
        <rect class="cls-8" x="141.16" y="93.84" width="5.89" height="5.88"/>
        <rect class="cls-8" x="141.16" y="87.96" width="5.89" height="5.88"/>
        <rect class="cls-8" x="141.16" y="82.07" width="5.89" height="5.89"/>
      </g>
      <g id="Head">
        <rect class="cls-8" x="11.76" y="41.18" width="5.88" height="5.88"/>
        <rect class="cls-2" x="11.76" y="47.06" width="5.88" height="5.88"/>
        <rect class="cls-6" x="11.76" y="58.82" width="5.88" height="5.89"/>
        <rect class="cls-8" x="11.76" y="52.94" width="5.88" height="5.88"/>
        <rect class="cls-6" x="11.76" y="29.41" width="5.88" height="5.88"/>
        <rect class="cls-6" x="11.76" y="35.29" width="5.88" height="5.89"/>
        <rect class="cls-6" x="11.76" y="64.71" width="5.88" height="5.88"/>
        <rect class="cls-5" x="23.53" y="17.65" width="5.88" height="5.88"/>
        <rect class="cls-2" x="23.53" y="70.59" width="5.88" height="5.88"/>
        <rect class="cls-2" x="23.53" y="64.71" width="5.88" height="5.88"/>
        <rect class="cls-8" x="23.53" y="58.82" width="5.88" height="5.89"/>
        <rect class="cls-2" x="23.53" y="23.53" width="5.88" height="5.88"/>
        <rect class="cls-8" x="23.53" y="41.18" width="5.88" height="5.88"/>
        <rect class="cls-8" x="23.53" y="47.06" width="5.88" height="5.88"/>
        <rect class="cls-7" x="23.53" y="29.41" width="5.88" height="5.88"/>
        <rect class="cls-8" x="23.53" y="52.94" width="5.88" height="5.88"/>
        <rect class="cls-8" x="23.53" y="35.29" width="5.88" height="5.89"/>
        <rect class="cls-5" x="23.53" y="11.77" width="5.88" height="5.88"/>
        <rect class="cls-5" x="23.53" y="5.88" width="5.88" height="5.89"/>
        <rect class="cls-6" x="23.53" width="5.88" height="5.88"/>
        <rect class="cls-2" x="17.64" y="58.82" width="5.89" height="5.89"/>
        <rect class="cls-2" x="17.64" y="47.06" width="5.89" height="5.88"/>
        <rect class="cls-8" x="17.64" y="35.29" width="5.89" height="5.89"/>
        <rect class="cls-8" x="17.64" y="52.94" width="5.89" height="5.88"/>
        <rect class="cls-6" x="17.64" y="29.41" width="5.89" height="5.88"/>
        <rect class="cls-6" x="17.64" y="11.77" width="5.89" height="5.88"/>
        <rect class="cls-6" x="17.64" y="64.71" width="5.89" height="5.88"/>
        <rect class="cls-6" x="17.64" y="70.59" width="5.89" height="5.88"/>
        <rect class="cls-6" x="17.64" y="5.88" width="5.89" height="5.89"/>
        <rect class="cls-6" x="17.64" y="17.65" width="5.89" height="5.88"/>
        <rect class="cls-8" x="17.64" y="41.18" width="5.89" height="5.88"/>
        <rect class="cls-6" x="17.64" y="23.53" width="5.89" height="5.88"/>
        <rect class="cls-6" x="5.88" y="41.18" width="5.88" height="5.88"/>
        <rect class="cls-6" x="5.88" y="47.06" width="5.88" height="5.88"/>
        <rect class="cls-6" x="5.88" y="52.94" width="5.88" height="5.88"/>
        <rect class="cls-6" x="5.88" y="58.82" width="5.88" height="5.89"/>
        <rect class="cls-6" x="5.88" y="35.29" width="5.88" height="5.89"/>
        <rect class="cls-6" y="52.94" width="5.88" height="5.88"/>
        <rect class="cls-6" y="41.18" width="5.88" height="5.88"/>
        <rect class="cls-6" x="94.11" y="41.18" width="5.89" height="5.88"/>
        <rect class="cls-6" x="88.23" y="29.41" width="5.88" height="5.88"/>
        <rect class="cls-2" x="88.23" y="52.94" width="5.88" height="5.88"/>
        <rect class="cls-6" x="94.11" y="35.29" width="5.89" height="5.89"/>
        <rect class="cls-6" x="94.11" y="47.06" width="5.89" height="5.88"/>
        <rect class="cls-8" x="88.23" y="47.06" width="5.88" height="5.88"/>
        <rect class="cls-8" x="88.23" y="35.29" width="5.88" height="5.89"/>
        <rect class="cls-8" x="88.23" y="41.18" width="5.88" height="5.88"/>
        <rect class="cls-8" x="35.29" y="58.82" width="5.88" height="5.89"/>
        <rect class="cls-4" x="35.29" y="41.18" width="5.88" height="5.88"/>
        <rect class="cls-8" x="35.29" y="64.71" width="5.88" height="5.88"/>
        <rect class="cls-2" x="35.29" y="23.53" width="5.88" height="5.88"/>
        <rect class="cls-8" x="35.29" y="47.06" width="5.88" height="5.88"/>
        <rect class="cls-6" x="35.29" y="11.77" width="5.88" height="5.88"/>
        <rect class="cls-4" x="35.29" y="35.29" width="5.88" height="5.89"/>
        <rect class="cls-8" x="35.29" y="70.59" width="5.88" height="5.88"/>
        <rect class="cls-8" x="35.29" y="52.94" width="5.88" height="5.88"/>
        <rect class="cls-6" x="35.29" y="17.65" width="5.88" height="5.88"/>
        <rect class="cls-2" x="35.29" y="29.41" width="5.88" height="5.88"/>
        <rect class="cls-8" x="29.41" y="58.82" width="5.88" height="5.89"/>
        <rect class="cls-3" x="29.41" y="35.29" width="5.88" height="5.89"/>
        <rect class="cls-8" x="29.41" y="64.71" width="5.88" height="5.88"/>
        <rect class="cls-2" x="29.41" y="23.53" width="5.88" height="5.88"/>
        <rect class="cls-6" x="29.41" y="5.88" width="5.88" height="5.89"/>
        <rect class="cls-8" x="29.41" y="29.41" width="5.88" height="5.88"/>
        <rect class="cls-6" x="29.41" y="11.77" width="5.88" height="5.88"/>
        <rect class="cls-8" x="29.41" y="47.06" width="5.88" height="5.88"/>
        <rect class="cls-8" x="29.41" y="70.59" width="5.88" height="5.88"/>
        <rect class="cls-2" x="29.41" y="17.65" width="5.88" height="5.88"/>
        <rect class="cls-8" x="29.41" y="52.94" width="5.88" height="5.88"/>
        <rect class="cls-3" x="29.41" y="41.18" width="5.88" height="5.88"/>
        <rect class="cls-6" x="41.17" y="17.65" width="5.89" height="5.88"/>
        <rect class="cls-8" x="41.17" y="64.71" width="5.89" height="5.88"/>
        <rect class="cls-8" x="52.94" y="64.71" width="5.88" height="5.88"/>
        <rect class="cls-8" x="47.06" y="41.18" width="5.88" height="5.88"/>
        <rect class="cls-6" x="47.06" y="23.53" width="5.88" height="5.88"/>
        <rect class="cls-7" x="41.17" y="47.06" width="5.89" height="5.88"/>
        <rect class="cls-1" x="47.06" y="47.06" width="5.88" height="5.88"/>
        <rect class="cls-7" x="47.06" y="52.94" width="5.88" height="5.88"/>
        <rect class="cls-3" x="52.94" y="52.94" width="5.88" height="5.88"/>
        <rect class="cls-8" x="41.17" y="35.29" width="5.89" height="5.89"/>
        <rect class="cls-2" x="47.06" y="29.41" width="5.88" height="5.88"/>
        <rect class="cls-8" x="47.06" y="70.59" width="5.88" height="5.88"/>
        <rect class="cls-8" x="52.94" y="29.41" width="5.88" height="5.88"/>
        <rect class="cls-7" x="52.94" y="47.06" width="5.88" height="5.88"/>
        <rect class="cls-8" x="47.06" y="35.29" width="5.88" height="5.89"/>
        <rect class="cls-8" x="52.94" y="41.18" width="5.88" height="5.88"/>
        <rect class="cls-8" x="47.06" y="64.71" width="5.88" height="5.88"/>
        <rect class="cls-8" x="52.94" y="35.29" width="5.88" height="5.89"/>
        <rect class="cls-8" x="52.94" y="70.59" width="5.88" height="5.88"/>
        <rect class="cls-7" x="52.94" y="58.82" width="5.88" height="5.89"/>
        <rect class="cls-2" x="41.17" y="29.41" width="5.89" height="5.88"/>
        <rect class="cls-7" x="47.06" y="58.82" width="5.88" height="5.89"/>
        <rect class="cls-7" x="41.17" y="58.82" width="5.89" height="5.89"/>
        <rect class="cls-8" x="41.17" y="41.18" width="5.89" height="5.88"/>
        <rect class="cls-3" x="41.17" y="52.94" width="5.89" height="5.88"/>
        <rect class="cls-6" x="52.94" y="23.53" width="5.88" height="5.88"/>
        <rect class="cls-8" x="41.17" y="70.59" width="5.89" height="5.88"/>
        <rect class="cls-6" x="41.17" y="23.53" width="5.89" height="5.88"/>
        <rect class="cls-4" x="64.7" y="41.18" width="5.89" height="5.88"/>
        <rect class="cls-6" x="58.82" y="17.65" width="5.88" height="5.88"/>
        <rect class="cls-2" x="64.7" y="23.53" width="5.89" height="5.88"/>
        <rect class="cls-8" x="58.82" y="70.59" width="5.88" height="5.88"/>
        <rect class="cls-3" x="58.82" y="41.18" width="5.88" height="5.88"/>
        <rect class="cls-8" x="58.82" y="64.71" width="5.88" height="5.88"/>
        <rect class="cls-8" x="64.7" y="29.41" width="5.89" height="5.88"/>
        <rect class="cls-3" x="58.82" y="35.29" width="5.88" height="5.89"/>
        <rect class="cls-8" x="64.7" y="70.59" width="5.89" height="5.88"/>
        <rect class="cls-8" x="64.7" y="64.71" width="5.89" height="5.88"/>
        <rect class="cls-8" x="58.82" y="23.53" width="5.88" height="5.88"/>
        <rect class="cls-8" x="58.82" y="52.94" width="5.88" height="5.88"/>
        <rect class="cls-8" x="58.82" y="47.06" width="5.88" height="5.88"/>
        <rect class="cls-7" x="58.82" y="29.41" width="5.88" height="5.88"/>
        <rect class="cls-4" x="64.7" y="35.29" width="5.89" height="5.89"/>
        <rect class="cls-6" x="64.7" y="17.65" width="5.89" height="5.88"/>
        <rect class="cls-8" x="64.7" y="47.06" width="5.89" height="5.88"/>
        <rect class="cls-6" x="64.7" y="11.77" width="5.89" height="5.88"/>
        <rect class="cls-8" x="58.82" y="58.82" width="5.88" height="5.89"/>
        <rect class="cls-8" x="64.7" y="58.82" width="5.89" height="5.89"/>
        <rect class="cls-8" x="64.7" y="52.94" width="5.89" height="5.88"/>
        <rect class="cls-6" x="82.35" y="23.53" width="5.88" height="5.88"/>
        <rect class="cls-8" x="82.35" y="41.18" width="5.88" height="5.88"/>
        <rect class="cls-2" x="82.35" y="47.06" width="5.88" height="5.88"/>
        <rect class="cls-8" x="82.35" y="35.29" width="5.88" height="5.89"/>
        <rect class="cls-2" x="82.35" y="58.82" width="5.88" height="5.89"/>
        <rect class="cls-8" x="82.35" y="52.94" width="5.88" height="5.88"/>
        <rect class="cls-6" x="82.35" y="17.65" width="5.88" height="5.88"/>
        <rect class="cls-2" x="82.35" y="29.41" width="5.88" height="5.88"/>
        <rect class="cls-6" x="82.35" y="11.77" width="5.88" height="5.88"/>
        <rect class="cls-6" x="82.35" y="5.88" width="5.88" height="5.89"/>
        <rect class="cls-8" x="76.47" y="70.59" width="5.88" height="5.88"/>
        <rect class="cls-8" x="76.47" y="64.71" width="5.88" height="5.88"/>
        <rect class="cls-8" x="76.47" y="58.82" width="5.88" height="5.89"/>
        <rect class="cls-8" x="76.47" y="52.94" width="5.88" height="5.88"/>
        <rect class="cls-2" x="76.47" y="47.06" width="5.88" height="5.88"/>
        <rect class="cls-8" x="76.47" y="41.18" width="5.88" height="5.88"/>
        <rect class="cls-8" x="76.47" y="35.29" width="5.88" height="5.89"/>
        <rect class="cls-2" x="76.47" y="29.41" width="5.88" height="5.88"/>
        <rect class="cls-2" x="76.47" y="23.53" width="5.88" height="5.88"/>
        <rect class="cls-5" x="76.47" y="17.65" width="5.88" height="5.88"/>
        <rect class="cls-5" x="76.47" y="11.77" width="5.88" height="5.88"/>
        <rect class="cls-5" x="76.47" y="5.88" width="5.88" height="5.89"/>
        <rect class="cls-6" x="76.47" width="5.88" height="5.88"/>
        <rect class="cls-8" x="70.59" y="70.59" width="5.88" height="5.88"/>
        <rect class="cls-8" x="70.59" y="64.71" width="5.88" height="5.88"/>
        <rect class="cls-8" x="70.59" y="58.82" width="5.88" height="5.89"/>
        <rect class="cls-8" x="70.59" y="52.94" width="5.88" height="5.88"/>
        <rect class="cls-8" x="70.59" y="47.06" width="5.88" height="5.88"/>
        <rect class="cls-8" x="70.59" y="41.18" width="5.88" height="5.88"/>
        <rect class="cls-8" x="70.59" y="35.29" width="5.88" height="5.89"/>
        <rect class="cls-2" x="70.59" y="29.41" width="5.88" height="5.88"/>
        <rect class="cls-2" x="70.59" y="23.53" width="5.88" height="5.88"/>
        <rect class="cls-2" x="70.59" y="17.65" width="5.88" height="5.88"/>
        <rect class="cls-6" x="70.59" y="11.77" width="5.88" height="5.88"/>
        <rect class="cls-6" x="70.59" y="5.88" width="5.88" height="5.89"/>
        <rect class="cls-6" x="100" y="41.18" width="5.88" height="5.88"/>
      </g>
    </g>
  </g>
</svg>