<?xml version="1.0" encoding="UTF-8"?>
<svg id="Layer_2" data-name="Layer 2" xmlns="http://www.w3.org/2000/svg" viewBox="0 0 324.04 72.24">
  <defs>
    <style>
      .cls-1 {
        fill: #2e5ea2;
      }

      .cls-1, .cls-2, .cls-3, .cls-4 {
        stroke-width: 0px;
      }

      .cls-2 {
        fill: #000;
      }

      .cls-3 {
        fill: #ff7f22;
      }

      .cls-4 {
        fill: #ffc63a;
      }
    </style>
  </defs>
  <g id="mindpet-logo">
    <rect class="cls-4" x="10.91" y="42.77" width="11.85" height="29.47"/>
    <rect class="cls-4" x="33.67" y="42.77" width="11.94" height="29.47"/>
    <rect class="cls-1" x="56.44" y="31.09" width="10.47" height="41.15"/>
    <rect class="cls-3" x="77.82" y="31.09" width="10.47" height="41.15"/>
    <polygon class="cls-3" points="324.04 0 313.57 0 298.23 0 298.23 10.47 313.57 10.47 313.57 25.81 324.04 25.81 324.04 10.47 324.04 0"/>
    <rect class="cls-4" x="77.82" y="16.41" width="10.47" height="11.77"/>
    <rect class="cls-1" x="99.2" y="42.76" width="19.41" height="29.48"/>
    <rect class="cls-4" x="129.6" y="38.48" width="10.47" height="33.76"/>
    <rect class="cls-4" x="119.13" y="31.01" width="10.47" height="11.77"/>
    <rect class="cls-3" x="150.94" y="42.76" width="19.45" height="17.71"/>
    <rect class="cls-1" x="171" y="60.47" width="10.47" height="11.77"/>
    <g>
      <path class="cls-2" d="M0,72.24V31.19h26.11v7.39h4.21v-7.39l26.12-.09v7.48s0,33.67,0,33.67h-10.82v-29.38h-11.94v29.38h-10.91v-29.38h-11.85v29.38H0Z"/>
      <path class="cls-2" d="M66.91,28.17v-11.77h10.91v11.77h-10.91ZM66.91,72.24V31.09h10.91v41.15h-10.91Z"/>
      <path class="cls-2" d="M88.29,72.24V31.09h33.67v7.4h7.64v33.74h-10.99v-29.44h-19.41v29.44h-10.91Z"/>
      <path class="cls-2" d="M140.07,72.24v-33.76h7.56v-7.39h22.85v-14.69h10.99v48.44h-7.73v7.39h-33.67ZM150.98,60.47h19.41v-17.7h-19.41v17.7Z"/>
    </g>
    <polygon class="cls-2" points="303.05 21.31 303.05 16.41 192.1 16.41 192.1 72.24 308.12 72.24 308.12 21.31 303.05 21.31"/>
    <g>
      <path class="cls-4" d="M201.98,62.84V30.72h5.02v-4.91h17.34v4.91h5.08v17.46h-5.08v4.91h-15.12v9.76h-7.25ZM209.23,45.26h12.89v-11.64h-12.89v11.64Z"/>
      <path class="cls-4" d="M241.41,62.84v-4.85h-5.02v-27.27h5.02v-4.91h17.34v4.91h5.08v7.76h-7.3v-4.85h-12.89v6.85h10.1v7.7h-10.1v6.9h12.89v-4.91h7.3v7.82h-5.08v4.85h-17.34Z"/>
      <path class="cls-4" d="M280.83,62.84v-29.21h-2.8v4.85h-7.25v-7.76h5.02v-4.91h17.34v4.91h5.08v7.76h-7.3v-4.85h-2.8v29.21h-7.3Z"/>
    </g>
  </g>
</svg>