<?xml version="1.0" encoding="UTF-8"?>
<svg id="Layer_2" data-name="Layer 2" xmlns="http://www.w3.org/2000/svg" viewBox="0 0 147.06 133.62">
  <defs>
    <style>
      .cls-1 {
        fill: #e14e27;
      }

      .cls-1, .cls-2, .cls-3, .cls-4, .cls-5, .cls-6, .cls-7 {
        stroke-width: 0px;
      }

      .cls-2 {
        fill: #f2b0a8;
      }

      .cls-3 {
        fill: #120a07;
      }

      .cls-4 {
        fill: #e68f34;
      }

      .cls-5 {
        fill: #7a1c20;
      }

      .cls-6 {
        fill: #edcfa1;
      }

      .cls-7 {
        fill: #fff;
      }
    </style>
  </defs>
  <g id="sleep-cat">
    <g>
      <g id="Layer_3" data-name="Layer 3">
        <g>
          <rect class="cls-5" x="141.18" y="115.97" width="5.88" height="5.88"/>
          <rect class="cls-5" x="141.18" y="110.09" width="5.88" height="5.88"/>
          <rect class="cls-5" x="141.18" y="104.21" width="5.88" height="5.88"/>
          <rect class="cls-5" x="141.18" y="98.32" width="5.88" height="5.89"/>
          <rect class="cls-5" x="141.18" y="92.44" width="5.88" height="5.88"/>
          <rect class="cls-5" x="135.3" y="121.85" width="5.88" height="5.89"/>
          <rect class="cls-1" x="135.3" y="115.97" width="5.88" height="5.88"/>
          <rect class="cls-4" x="135.3" y="110.09" width="5.88" height="5.88"/>
          <rect class="cls-4" x="135.3" y="104.21" width="5.88" height="5.88"/>
          <rect class="cls-4" x="135.3" y="98.32" width="5.88" height="5.89"/>
          <rect class="cls-1" x="135.3" y="92.44" width="5.88" height="5.88"/>
          <rect class="cls-5" x="135.3" y="86.56" width="5.88" height="5.88"/>
          <rect class="cls-5" x="129.41" y="127.74" width="5.89" height="5.88"/>
          <rect class="cls-1" x="129.41" y="121.85" width="5.89" height="5.89"/>
          <rect class="cls-1" x="129.41" y="115.97" width="5.89" height="5.88"/>
          <rect class="cls-1" x="129.41" y="110.09" width="5.89" height="5.88"/>
          <rect class="cls-4" x="129.41" y="104.21" width="5.89" height="5.88"/>
          <rect class="cls-1" x="129.41" y="98.32" width="5.89" height="5.89"/>
          <rect class="cls-4" x="129.41" y="92.44" width="5.89" height="5.88"/>
          <rect class="cls-4" x="129.41" y="86.56" width="5.89" height="5.88"/>
          <rect class="cls-5" x="129.41" y="80.68" width="5.89" height="5.88"/>
          <rect class="cls-5" x="123.53" y="127.74" width="5.88" height="5.88"/>
          <rect class="cls-1" x="123.53" y="121.85" width="5.88" height="5.89"/>
          <rect class="cls-1" x="123.53" y="115.97" width="5.88" height="5.88"/>
          <rect class="cls-4" x="123.53" y="110.09" width="5.88" height="5.88"/>
          <rect class="cls-4" x="123.53" y="104.21" width="5.88" height="5.88"/>
          <rect class="cls-4" x="123.53" y="98.32" width="5.88" height="5.89"/>
          <rect class="cls-4" x="123.53" y="92.44" width="5.88" height="5.88"/>
          <rect class="cls-4" x="123.53" y="86.56" width="5.88" height="5.88"/>
          <rect class="cls-1" x="123.53" y="80.68" width="5.88" height="5.88"/>
          <rect class="cls-5" x="123.53" y="74.79" width="5.88" height="5.89"/>
          <rect class="cls-5" x="117.65" y="127.74" width="5.88" height="5.88"/>
          <rect class="cls-1" x="117.65" y="121.85" width="5.88" height="5.89"/>
          <rect class="cls-1" x="117.65" y="115.97" width="5.88" height="5.88"/>
          <rect class="cls-5" x="117.65" y="110.09" width="5.88" height="5.88"/>
          <rect class="cls-4" x="117.65" y="104.21" width="5.88" height="5.88"/>
          <rect class="cls-4" x="117.65" y="98.32" width="5.88" height="5.89"/>
          <rect class="cls-4" x="117.65" y="92.44" width="5.88" height="5.88"/>
          <rect class="cls-4" x="117.65" y="86.56" width="5.88" height="5.88"/>
          <rect class="cls-4" x="117.65" y="80.68" width="5.88" height="5.88"/>
          <rect class="cls-1" x="117.65" y="74.79" width="5.88" height="5.89"/>
          <rect class="cls-5" x="117.65" y="68.91" width="5.88" height="5.88"/>
          <rect class="cls-5" x="111.77" y="127.74" width="5.88" height="5.88"/>
          <rect class="cls-1" x="111.77" y="121.85" width="5.88" height="5.89"/>
          <rect class="cls-1" x="111.77" y="115.97" width="5.88" height="5.88"/>
          <rect class="cls-5" x="111.77" y="110.09" width="5.88" height="5.88"/>
          <rect class="cls-4" x="111.77" y="104.21" width="5.88" height="5.88"/>
          <rect class="cls-4" x="111.77" y="98.32" width="5.88" height="5.89"/>
          <rect class="cls-4" x="111.77" y="92.44" width="5.88" height="5.88"/>
          <rect class="cls-1" x="111.77" y="86.56" width="5.88" height="5.88"/>
          <rect class="cls-4" x="111.77" y="80.68" width="5.88" height="5.88"/>
          <rect class="cls-1" x="111.77" y="74.79" width="5.88" height="5.89"/>
          <rect class="cls-5" x="111.77" y="68.91" width="5.88" height="5.88"/>
          <rect class="cls-5" x="105.88" y="127.74" width="5.89" height="5.88"/>
          <rect class="cls-1" x="105.88" y="121.85" width="5.89" height="5.89"/>
          <rect class="cls-5" x="105.88" y="115.97" width="5.89" height="5.88"/>
          <rect class="cls-1" x="105.88" y="110.09" width="5.89" height="5.88"/>
          <rect class="cls-4" x="105.88" y="104.21" width="5.89" height="5.88"/>
          <rect class="cls-4" x="105.88" y="98.32" width="5.89" height="5.89"/>
          <rect class="cls-1" x="105.88" y="92.44" width="5.89" height="5.88"/>
          <rect class="cls-4" x="105.88" y="86.56" width="5.89" height="5.88"/>
          <rect class="cls-1" x="105.88" y="80.68" width="5.89" height="5.88"/>
          <rect class="cls-1" x="105.88" y="74.79" width="5.89" height="5.89"/>
          <rect class="cls-5" x="105.88" y="68.91" width="5.89" height="5.88"/>
          <rect class="cls-5" x="100" y="127.74" width="5.88" height="5.88"/>
          <rect class="cls-5" x="100" y="121.85" width="5.88" height="5.89"/>
          <rect class="cls-1" x="100" y="115.97" width="5.88" height="5.88"/>
          <rect class="cls-4" x="100" y="110.09" width="5.88" height="5.88"/>
          <rect class="cls-4" x="100" y="104.21" width="5.88" height="5.88"/>
          <rect class="cls-4" x="100" y="98.32" width="5.88" height="5.89"/>
          <rect class="cls-4" x="100" y="92.44" width="5.88" height="5.88"/>
          <rect class="cls-4" x="100" y="86.56" width="5.88" height="5.88"/>
          <rect class="cls-4" x="100" y="80.68" width="5.88" height="5.88"/>
          <rect class="cls-4" x="100" y="74.79" width="5.88" height="5.89"/>
          <rect class="cls-5" x="100" y="68.91" width="5.88" height="5.88"/>
          <rect class="cls-5" x="94.12" y="127.74" width="5.88" height="5.88"/>
          <rect class="cls-1" x="94.12" y="121.85" width="5.88" height="5.89"/>
          <rect class="cls-1" x="94.12" y="115.97" width="5.88" height="5.88"/>
          <rect class="cls-4" x="94.12" y="110.09" width="5.88" height="5.88"/>
          <rect class="cls-4" x="94.12" y="104.21" width="5.88" height="5.88"/>
          <rect class="cls-4" x="94.12" y="98.32" width="5.88" height="5.89"/>
          <rect class="cls-4" x="94.12" y="92.44" width="5.88" height="5.88"/>
          <rect class="cls-1" x="94.12" y="86.56" width="5.88" height="5.88"/>
          <rect class="cls-4" x="94.12" y="80.68" width="5.88" height="5.88"/>
          <rect class="cls-1" x="94.12" y="74.79" width="5.88" height="5.89"/>
          <rect class="cls-5" x="94.12" y="68.91" width="5.88" height="5.88"/>
          <rect class="cls-5" x="88.24" y="127.74" width="5.88" height="5.88"/>
          <rect class="cls-1" x="88.24" y="121.85" width="5.88" height="5.89"/>
          <rect class="cls-4" x="88.24" y="115.97" width="5.88" height="5.88"/>
          <rect class="cls-4" x="88.24" y="110.09" width="5.88" height="5.88"/>
          <rect class="cls-4" x="88.24" y="104.21" width="5.88" height="5.88"/>
          <rect class="cls-4" x="88.24" y="98.32" width="5.88" height="5.89"/>
          <rect class="cls-1" x="88.24" y="92.44" width="5.88" height="5.88"/>
          <rect class="cls-4" x="88.24" y="86.56" width="5.88" height="5.88"/>
          <rect class="cls-1" x="88.24" y="80.68" width="5.88" height="5.88"/>
          <rect class="cls-1" x="88.24" y="74.79" width="5.88" height="5.89"/>
          <rect class="cls-5" x="88.24" y="68.91" width="5.88" height="5.88"/>
          <rect class="cls-5" x="82.35" y="127.74" width="5.89" height="5.88"/>
          <rect class="cls-4" x="82.35" y="121.85" width="5.89" height="5.89"/>
          <rect class="cls-4" x="82.35" y="115.97" width="5.89" height="5.88"/>
          <rect class="cls-4" x="82.35" y="110.09" width="5.89" height="5.88"/>
          <rect class="cls-1" x="82.35" y="104.21" width="5.89" height="5.88"/>
          <rect class="cls-4" x="82.35" y="98.32" width="5.89" height="5.89"/>
          <rect class="cls-4" x="82.35" y="92.44" width="5.89" height="5.88"/>
          <rect class="cls-4" x="82.35" y="86.56" width="5.89" height="5.88"/>
          <rect class="cls-4" x="82.35" y="80.68" width="5.89" height="5.88"/>
          <rect class="cls-5" x="82.35" y="74.79" width="5.89" height="5.89"/>
          <rect class="cls-5" x="76.47" y="127.74" width="5.88" height="5.88"/>
          <rect class="cls-4" x="76.47" y="121.85" width="5.88" height="5.89"/>
          <rect class="cls-4" x="76.47" y="115.97" width="5.88" height="5.88"/>
          <rect class="cls-4" x="76.47" y="110.09" width="5.88" height="5.88"/>
          <rect class="cls-1" x="76.47" y="104.21" width="5.88" height="5.88"/>
          <rect class="cls-1" x="76.47" y="98.32" width="5.88" height="5.89"/>
          <rect class="cls-4" x="76.47" y="92.44" width="5.88" height="5.88"/>
          <rect class="cls-4" x="76.47" y="86.56" width="5.88" height="5.88"/>
          <rect class="cls-1" x="76.47" y="80.68" width="5.88" height="5.88"/>
          <rect class="cls-1" x="76.47" y="74.79" width="5.88" height="5.89"/>
          <rect class="cls-5" x="76.47" y="68.91" width="5.88" height="5.88"/>
          <rect class="cls-5" x="70.59" y="127.74" width="5.88" height="5.88"/>
          <rect class="cls-4" x="70.59" y="121.85" width="5.88" height="5.89"/>
          <rect class="cls-4" x="70.59" y="115.97" width="5.88" height="5.88"/>
          <rect class="cls-4" x="70.59" y="110.09" width="5.88" height="5.88"/>
          <rect class="cls-4" x="70.59" y="104.21" width="5.88" height="5.88"/>
          <rect class="cls-4" x="70.59" y="98.32" width="5.88" height="5.89"/>
          <rect class="cls-1" x="70.59" y="92.44" width="5.88" height="5.88"/>
          <rect class="cls-4" x="70.59" y="86.56" width="5.88" height="5.88"/>
          <rect class="cls-4" x="70.59" y="80.68" width="5.88" height="5.88"/>
          <rect class="cls-1" x="70.59" y="74.79" width="5.88" height="5.89"/>
          <rect class="cls-2" x="70.59" y="68.91" width="5.88" height="5.88"/>
          <rect class="cls-5" x="70.59" y="63.03" width="5.88" height="5.88"/>
          <rect class="cls-5" x="64.71" y="127.74" width="5.88" height="5.88"/>
          <rect class="cls-1" x="64.71" y="121.85" width="5.88" height="5.89"/>
          <rect class="cls-4" x="64.71" y="115.97" width="5.88" height="5.88"/>
          <rect class="cls-4" x="64.71" y="110.09" width="5.88" height="5.88"/>
          <rect class="cls-4" x="64.71" y="104.21" width="5.88" height="5.88"/>
          <rect class="cls-4" x="64.71" y="98.32" width="5.88" height="5.89"/>
          <rect class="cls-4" x="64.71" y="92.44" width="5.88" height="5.88"/>
          <rect class="cls-4" x="64.71" y="86.56" width="5.88" height="5.88"/>
          <rect class="cls-6" x="64.71" y="80.68" width="5.88" height="5.88"/>
          <rect class="cls-1" x="64.71" y="74.79" width="5.88" height="5.89"/>
          <rect class="cls-2" x="64.71" y="68.91" width="5.88" height="5.88"/>
          <rect class="cls-5" x="64.71" y="63.03" width="5.88" height="5.88"/>
          <rect class="cls-5" x="58.83" y="127.74" width="5.88" height="5.88"/>
          <rect class="cls-1" x="58.83" y="121.85" width="5.88" height="5.89"/>
          <rect class="cls-4" x="58.83" y="115.97" width="5.88" height="5.88"/>
          <rect class="cls-4" x="58.83" y="110.09" width="5.88" height="5.88"/>
          <rect class="cls-3" x="58.83" y="104.21" width="5.88" height="5.88"/>
          <rect class="cls-4" x="58.83" y="98.32" width="5.88" height="5.89"/>
          <rect class="cls-4" x="58.83" y="92.44" width="5.88" height="5.88"/>
          <rect class="cls-4" x="58.83" y="86.56" width="5.88" height="5.88"/>
          <rect class="cls-4" x="58.83" y="80.68" width="5.88" height="5.88"/>
          <rect class="cls-2" x="58.83" y="74.79" width="5.88" height="5.89"/>
          <rect class="cls-5" x="58.83" y="68.91" width="5.88" height="5.88"/>
          <rect class="cls-5" x="52.94" y="127.74" width="5.89" height="5.88"/>
          <rect class="cls-1" x="52.94" y="121.85" width="5.89" height="5.89"/>
          <rect class="cls-4" x="52.94" y="115.97" width="5.89" height="5.88"/>
          <rect class="cls-4" x="52.94" y="110.09" width="5.89" height="5.88"/>
          <rect class="cls-3" x="52.94" y="104.21" width="5.89" height="5.88"/>
          <rect class="cls-6" x="52.94" y="98.32" width="5.89" height="5.89"/>
          <rect class="cls-4" x="52.94" y="92.44" width="5.89" height="5.88"/>
          <rect class="cls-4" x="52.94" y="86.56" width="5.89" height="5.88"/>
          <rect class="cls-4" x="52.94" y="80.68" width="5.89" height="5.88"/>
          <rect class="cls-5" x="52.94" y="74.79" width="5.89" height="5.89"/>
          <rect class="cls-5" x="47.06" y="121.85" width="5.88" height="5.89"/>
          <rect class="cls-6" x="47.06" y="115.97" width="5.88" height="5.88"/>
          <rect class="cls-3" x="47.06" y="110.09" width="5.88" height="5.88"/>
          <rect class="cls-6" x="47.06" y="104.21" width="5.88" height="5.88"/>
          <rect class="cls-4" x="47.06" y="98.32" width="5.88" height="5.89"/>
          <rect class="cls-4" x="47.06" y="92.44" width="5.88" height="5.88"/>
          <rect class="cls-1" x="47.06" y="86.56" width="5.88" height="5.88"/>
          <rect class="cls-5" x="47.06" y="80.68" width="5.88" height="5.88"/>
          <rect class="cls-5" x="41.18" y="127.74" width="5.88" height="5.88"/>
          <rect class="cls-1" x="41.18" y="121.85" width="5.88" height="5.89"/>
          <rect class="cls-6" x="41.18" y="115.97" width="5.88" height="5.88"/>
          <rect class="cls-6" x="41.18" y="110.09" width="5.88" height="5.88"/>
          <rect class="cls-3" x="41.18" y="104.21" width="5.88" height="5.88"/>
          <rect class="cls-4" x="41.18" y="98.32" width="5.88" height="5.89"/>
          <rect class="cls-4" x="41.18" y="92.44" width="5.88" height="5.88"/>
          <rect class="cls-1" x="41.18" y="86.56" width="5.88" height="5.88"/>
          <rect class="cls-5" x="41.18" y="80.68" width="5.88" height="5.88"/>
          <rect class="cls-7" x="41.18" y="74.79" width="5.88" height="5.89"/>
          <rect class="cls-5" x="35.3" y="127.74" width="5.88" height="5.88"/>
          <rect class="cls-1" x="35.3" y="121.85" width="5.88" height="5.89"/>
          <rect class="cls-6" x="35.3" y="115.97" width="5.88" height="5.88"/>
          <rect class="cls-3" x="35.3" y="110.09" width="5.88" height="5.88"/>
          <rect class="cls-6" x="35.3" y="104.21" width="5.88" height="5.88"/>
          <rect class="cls-4" x="35.3" y="98.32" width="5.88" height="5.89"/>
          <rect class="cls-4" x="35.3" y="92.44" width="5.88" height="5.88"/>
          <rect class="cls-1" x="35.3" y="86.56" width="5.88" height="5.88"/>
          <rect class="cls-1" x="35.3" y="80.68" width="5.88" height="5.88"/>
          <rect class="cls-5" x="35.3" y="74.79" width="5.88" height="5.89"/>
          <rect class="cls-7" x="35.3" y="68.91" width="5.88" height="5.88"/>
          <rect class="cls-5" x="29.41" y="127.74" width="5.89" height="5.88"/>
          <rect class="cls-1" x="29.41" y="121.85" width="5.89" height="5.89"/>
          <rect class="cls-4" x="29.41" y="115.97" width="5.89" height="5.88"/>
          <rect class="cls-4" x="29.41" y="110.09" width="5.89" height="5.88"/>
          <rect class="cls-3" x="29.41" y="104.21" width="5.89" height="5.88"/>
          <rect class="cls-6" x="29.41" y="98.32" width="5.89" height="5.89"/>
          <rect class="cls-4" x="29.41" y="92.44" width="5.89" height="5.88"/>
          <rect class="cls-4" x="29.41" y="86.56" width="5.89" height="5.88"/>
          <rect class="cls-1" x="29.41" y="80.68" width="5.89" height="5.88"/>
          <rect class="cls-1" x="29.41" y="74.79" width="5.89" height="5.89"/>
          <rect class="cls-5" x="29.41" y="68.91" width="5.89" height="5.88"/>
          <rect class="cls-7" x="29.41" y="63.03" width="5.89" height="5.88"/>
          <rect class="cls-5" x="23.53" y="127.74" width="5.88" height="5.88"/>
          <rect class="cls-1" x="23.53" y="121.85" width="5.88" height="5.89"/>
          <rect class="cls-4" x="23.53" y="115.97" width="5.88" height="5.88"/>
          <rect class="cls-4" x="23.53" y="110.09" width="5.88" height="5.88"/>
          <rect class="cls-3" x="23.53" y="104.21" width="5.88" height="5.88"/>
          <rect class="cls-4" x="23.53" y="98.32" width="5.88" height="5.89"/>
          <rect class="cls-4" x="23.53" y="92.44" width="5.88" height="5.88"/>
          <rect class="cls-4" x="23.53" y="86.56" width="5.88" height="5.88"/>
          <rect class="cls-4" x="23.53" y="80.68" width="5.88" height="5.88"/>
          <rect class="cls-1" x="23.53" y="74.79" width="5.88" height="5.89"/>
          <rect class="cls-2" x="23.53" y="68.91" width="5.88" height="5.88"/>
          <rect class="cls-5" x="23.53" y="63.03" width="5.88" height="5.88"/>
          <rect class="cls-5" x="17.65" y="127.74" width="5.88" height="5.88"/>
          <rect class="cls-1" x="17.65" y="121.85" width="5.88" height="5.89"/>
          <rect class="cls-1" x="17.65" y="115.97" width="5.88" height="5.88"/>
          <rect class="cls-4" x="17.65" y="110.09" width="5.88" height="5.88"/>
          <rect class="cls-1" x="17.65" y="104.21" width="5.88" height="5.88"/>
          <rect class="cls-4" x="17.65" y="98.32" width="5.88" height="5.89"/>
          <rect class="cls-4" x="17.65" y="92.44" width="5.88" height="5.88"/>
          <rect class="cls-6" x="17.65" y="86.56" width="5.88" height="5.88"/>
          <rect class="cls-1" x="17.65" y="80.68" width="5.88" height="5.88"/>
          <rect class="cls-2" x="17.65" y="74.79" width="5.88" height="5.89"/>
          <rect class="cls-2" x="17.65" y="68.91" width="5.88" height="5.88"/>
          <rect class="cls-5" x="17.65" y="63.03" width="5.88" height="5.88"/>
          <rect class="cls-5" x="11.77" y="121.85" width="5.88" height="5.89"/>
          <rect class="cls-1" x="11.77" y="115.97" width="5.88" height="5.88"/>
          <rect class="cls-4" x="11.77" y="110.09" width="5.88" height="5.88"/>
          <rect class="cls-1" x="11.77" y="104.21" width="5.88" height="5.88"/>
          <rect class="cls-4" x="11.77" y="98.32" width="5.88" height="5.89"/>
          <rect class="cls-6" x="11.77" y="92.44" width="5.88" height="5.88"/>
          <rect class="cls-5" x="11.77" y="86.56" width="5.88" height="5.88"/>
          <rect class="cls-5" x="11.77" y="80.68" width="5.88" height="5.88"/>
          <rect class="cls-5" x="11.77" y="74.79" width="5.88" height="5.89"/>
          <rect class="cls-5" x="11.77" y="68.91" width="5.88" height="5.88"/>
          <rect class="cls-5" x="5.88" y="115.97" width="5.89" height="5.88"/>
          <rect class="cls-4" x="5.88" y="110.09" width="5.89" height="5.88"/>
          <rect class="cls-5" x="5.88" y="104.21" width="5.89" height="5.88"/>
          <rect class="cls-4" x="5.88" y="98.32" width="5.89" height="5.89"/>
          <rect class="cls-5" x="5.88" y="92.44" width="5.89" height="5.88"/>
          <rect class="cls-5" y="110.09" width="5.88" height="5.88"/>
          <rect class="cls-5" y="98.32" width="5.88" height="5.89"/>
        </g>
      </g>
      <g id="cap-Z">
        <rect class="cls-3" x="54.86" y="33.38" width="19.49" height="4.87"/>
        <rect class="cls-3" x="64.61" y="38.25" width="4.87" height="4.87"/>
        <rect class="cls-3" x="59.74" y="43.12" width="4.87" height="4.87"/>
        <rect class="cls-3" x="54.86" y="48" width="19.49" height="4.87"/>
      </g>
      <path id="lower-z1" class="cls-3" d="M88.89,25.35v-5h-10v5h5v5h10v-5h-5Z"/>
      <path id="lower-z2" class="cls-3" d="M81.03,5V0h-10v5h5v5h10v-5h-5Z"/>
    </g>
  </g>
</svg>